<?xml version="1.0" encoding="utf-8"?>
<!-- Generator: Adobe Illustrator 17.1.0, SVG Export Plug-In . SVG Version: 6.00 Build 0)  -->
<!DOCTYPE svg PUBLIC "-//W3C//DTD SVG 1.1//EN" "http://www.w3.org/Graphics/SVG/1.1/DTD/svg11.dtd">
<svg version="1.1" id="Layer_1" xmlns="http://www.w3.org/2000/svg" xmlns:xlink="http://www.w3.org/1999/xlink" x="0px" y="0px"
	 viewBox="56 196 500 400" enable-background="new 56 196 500 400" xml:space="preserve">
<g>
	<polygon fill="#00AF89" points="442.4,287.6 442.4,227.7 404.2,227.7 404.2,287.6 344.3,287.6 344.3,324 404.2,324 404.2,385.8 
		442.4,385.8 442.4,324 502.4,324 502.4,287.6 	"/>
	<path fill="#00AF89" d="M149.8,345.6C126.2,373.7,109,411.9,109,461v103.3h112.8c18.5,0,33.2-14.7,33.2-33.2V417h-82.2
		c4.5-17.2,12.1-31.2,21.7-42.7c10.2-12.1,22.3-21.7,39.5-28c12.8-4.5,21-16.6,21-30v-24.9C202.1,299.7,174,318.2,149.8,345.6z"/>
	<path fill="#00AF89" d="M379.9,374.3c0.6-0.6,0.6-0.6,1.3-1.3v-26.8h-37.6h-8.3c-23.6,28-40.2,66.3-40.2,114.8v103.3H408
		c18.5,0,33.1-14.7,33.1-33.2V417h-82.9C362.7,400.5,370.4,385.8,379.9,374.3z"/>
</g>
</svg>
